<?xml version="1.0" encoding="UTF-8"?><svg id="Layer_1" xmlns="http://www.w3.org/2000/svg" viewBox="0 0 2256 512"><defs><style>.cls-1{fill:#8278e6;stroke-width:0px;}</style></defs><path class="cls-1" d="M143.89,224.64c27.54,69.2,68.4,134.95,121.2,187.59-4.5,4.06-8.99,7.91-13.51,11.56-54.68-54.81-97.35-123.8-125.48-195.98-16.2-37.27-25.78-80.37-26.41-119.02,5.74,1.68,11.8,2.19,17.82,1.47,1.18,37.8,11.39,80.5,26.4,114.39h-.01Z"/><path class="cls-1" d="M264.05,38.4c-4.53,3.84-9.04,7.85-13.52,12.04C164.38-11.29,120.11,19.73,117.52,95.3c-5.99,1.12-12.15.33-17.59-2.13,3.04-90.16,64.22-127.43,164.13-54.78h0Z"/><path class="cls-1" d="M414.87,288.21c50.58,137.87,6.97,263.52-138.42,135.23-4.48,4.08-8.99,7.97-13.5,11.67,172.18,150.37,229-10.65,162.68-169.21-3.4,7.45-6.99,14.89-10.77,22.31h0Z"/><path class="cls-1" d="M413.4,8.78c-64.59-31.39-155.24,45.05-195.93,98.95,8.14-.79,16.39-1.41,24.73-1.86,94.2-112.7,224.69-138.37,186.23,51.6,5.77,1.84,11.41,3.8,16.87,5.85,15.1-54.69,8.81-133.91-31.89-154.54h-.01Z"/><path class="cls-1" d="M210.55,466.17c3.53,5.26,5.16,11.62,4.85,17.58-79.15,29.32-127.42-15.61-114.26-122.46,5.58,2.01,11.32,3.91,17.19,5.7-9.44,88.61,25.12,127.09,92.21,99.18h0Z"/><path class="cls-1" d="M441.33,179.42c-24.93,90.61-75.12,177.49-141.17,244.37-21.86,23.31-46.23,41.66-70.23,53.54-.67-5.84-2.52-11.65-5.64-17.06l-.28-.5c30.94-16.26,62.52-43.36,85.53-71.93,52.85-61.72,93.91-135.85,115.03-214.36,5.76,1.87,11.37,3.83,16.78,5.92h0Z"/><path class="cls-1" d="M103.37,147.33c-202.19,81.76-71.08,201.08,81.1,219.65-4.74-6.66-9.41-13.48-13.96-20.47-144.76-25.2-231.67-125.14-47.81-186.82-1.29-5.92-2.43-11.78-3.35-17.54-5.81,1.81-10.47,3.15-15.98,5.18h0Z"/><path class="cls-1" d="M361.11,143.75c-73.72-10.76-151.13-8.24-223.14,11.1-1.28-5.91-2.35-11.74-3.25-17.49,29.89-8.17,62.88-13.44,94.45-15.84,80.31-5.56,164.33,1.66,238.56,33.62,6.53,2.74,12.64,5.63,18.34,8.62-4.69,4.4-8.28,9.67-10.65,15.44-33.67-18.58-76.73-31.57-114.3-35.46h0Z"/><path class="cls-1" d="M540.99,212.55c26.32,50.18-6.58,99.91-78.57,128.33-1.06-5.84-2.28-11.77-3.67-17.74,94.71-42.52,92.44-95.58,29.55-136.24,1.98-6.03,5.9-11.45,11.5-15.22,16.78,10.62,31.85,24.04,41.2,40.86h-.01Z"/><ellipse class="cls-1" cx="276.68" cy="247.08" rx="59.16" ry="59.12"/><ellipse class="cls-1" cx="185.86" cy="482.44" rx="29.58" ry="29.56"/><ellipse class="cls-1" cx="112.09" cy="66.24" rx="29.58" ry="29.56"/><ellipse class="cls-1" cx="516.39" cy="196.15" rx="29.58" ry="29.56"/><path class="cls-1" d="M702.01,395.8l108-280h39.6l106.8,280h-39.6l-66.4-175.2c-1.34-3.46-3.14-8.73-5.4-15.8-2.27-7.06-4.8-14.6-7.6-22.6s-5.34-15.53-7.6-22.6c-2.27-7.06-4.07-12.46-5.4-16.2l8.4-.4c-1.87,5.6-3.94,11.8-6.2,18.6-2.27,6.8-4.6,13.87-7,21.2-2.4,7.34-4.8,14.4-7.2,21.2-2.4,6.8-4.67,12.87-6.8,18.2l-65.6,173.6h-38ZM748.81,322.2l14-36h129.6l15.6,36h-159.2Z"/><path class="cls-1" d="M1038.81,395.8V115.8h114.4c16,0,30.66,3.87,44,11.6,13.33,7.74,23.93,18.27,31.8,31.6,7.86,13.34,11.8,28.27,11.8,44.8,0,15.47-3.87,29.6-11.6,42.4-7.74,12.8-18.14,23-31.2,30.6-13.07,7.6-27.74,11.4-44,11.4h-78v107.6h-37.2ZM1076.01,252.2h81.6c8.8,0,16.6-2.13,23.4-6.4,6.8-4.26,12.13-10.06,16-17.4,3.86-7.33,5.8-15.53,5.8-24.6,0-10.13-2.34-19.13-7-27-4.67-7.86-11.27-14-19.8-18.4-8.54-4.4-18-6.6-28.4-6.6h-71.6v100.4ZM1207.21,395.8l-70.8-124.8,37.2-10,78.4,135.2-44.8-.4Z"/><path class="cls-1" d="M1462,399.8c-20.27,0-39.27-3.6-57-10.8-17.74-7.2-33.2-17.33-46.4-30.4-13.2-13.06-23.47-28.33-30.8-45.8-7.34-17.46-11-36.33-11-56.6s3.6-39.06,10.8-56.4c7.2-17.33,17.33-32.46,30.4-45.4,13.06-12.93,28.4-23,46-30.2,17.6-7.2,36.53-10.8,56.8-10.8,14.13,0,27.93,2.07,41.4,6.2,13.46,4.14,25.8,9.74,37,16.8,11.2,7.07,20.13,15.27,26.8,24.6l-24,25.2c-7.74-7.73-16.07-14.26-25-19.6-8.94-5.33-18.2-9.46-27.8-12.4-9.6-2.93-19.07-4.4-28.4-4.4-14.94,0-28.87,2.67-41.8,8-12.94,5.34-24.2,12.8-33.8,22.4-9.6,9.6-17.07,20.8-22.4,33.6-5.34,12.8-8,26.94-8,42.4s2.8,28.94,8.4,42c5.6,13.07,13.33,24.47,23.2,34.2,9.86,9.74,21.4,17.34,34.6,22.8,13.2,5.47,27.26,8.2,42.2,8.2,11.46,0,22.26-1.66,32.4-5,10.13-3.33,19.06-8.13,26.8-14.4,7.73-6.26,13.73-13.46,18-21.6,4.26-8.13,6.4-17,6.4-26.6v-10.8l6.4,6.8h-92v-36.8h123.6c.53,2.4.86,5,1,7.8.13,2.8.26,5.6.4,8.4.13,2.8.2,5.4.2,7.8,0,17.87-3.14,34.14-9.4,48.8-6.27,14.67-15.07,27.4-26.4,38.2-11.34,10.8-24.54,19.14-39.6,25-15.07,5.86-31.4,8.8-49,8.8Z"/><path class="cls-1" d="M1792,399.8c-20,0-38.34-3.6-55-10.8-16.67-7.2-31.2-17.2-43.6-30s-21.94-27.93-28.6-45.4c-6.67-17.46-10-36.6-10-57.4s3.33-39.93,10-57.4c6.66-17.46,16.2-32.66,28.6-45.6,12.4-12.93,26.93-23,43.6-30.2,16.66-7.2,35-10.8,55-10.8s37.93,3.6,54.6,10.8c16.66,7.2,31.2,17.34,43.6,30.4,12.4,13.07,22,28.34,28.8,45.8,6.8,17.47,10.2,36.47,10.2,57s-3.4,39.54-10.2,57c-6.8,17.47-16.4,32.67-28.8,45.6-12.4,12.94-26.94,23-43.6,30.2-16.67,7.2-34.87,10.8-54.6,10.8ZM1792,363.4c14.4,0,27.6-2.66,39.6-8,12-5.33,22.4-12.8,31.2-22.4,8.8-9.6,15.73-20.93,20.8-34,5.06-13.06,7.6-27.33,7.6-42.8s-2.54-29.8-7.6-43c-5.07-13.2-12-24.6-20.8-34.2-8.8-9.6-19.2-17.06-31.2-22.4-12-5.33-25.2-8-39.6-8s-28,2.67-40,8c-12,5.34-22.47,12.8-31.4,22.4-8.94,9.6-15.8,20.94-20.6,34-4.8,13.07-7.2,27.47-7.2,43.2s2.4,29.8,7.2,43c4.8,13.2,11.66,24.54,20.6,34,8.93,9.47,19.4,16.87,31.4,22.2,12,5.34,25.33,8,40,8Z"/><path class="cls-1" d="M2020.8,395.8V115.8h33.6l167.41,223V115.8h34.19v280h-34l-167.6-222v222h-33.6Z"/></svg>