<?xml version="1.0" encoding="UTF-8"?><svg id="Layer_1" xmlns="http://www.w3.org/2000/svg" viewBox="0 0 512 512"><defs><style>.cls-1{fill:#8278e6;stroke-width:0px;}</style></defs><path class="cls-1" d="M133.95,226.77c25.64,64.47,63.68,125.73,112.83,174.78-4.18,3.77-8.38,7.37-12.58,10.77-50.9-51.06-90.63-115.33-116.82-182.59-15.08-34.72-24-74.88-24.59-110.89,5.34,1.56,10.98,2.04,16.58,1.36,1.1,35.22,10.6,74.99,24.57,106.57Z"/><path class="cls-1" d="M245.81,53.27c-4.22,3.58-8.42,7.32-12.59,11.21-80.2-57.52-121.4-28.61-123.82,41.8-5.58,1.05-11.31.31-16.38-1.98,2.83-84,59.78-118.72,152.79-51.03Z"/><path class="cls-1" d="M386.21,286.01c47.08,128.45,6.48,245.5-128.85,125.99-4.18,3.8-8.37,7.43-12.57,10.87,160.29,140.09,213.18-9.93,151.44-157.64-3.16,6.94-6.51,13.87-10.02,20.78Z"/><path class="cls-1" d="M384.84,25.67c-60.13-29.24-144.52,41.98-182.39,92.18,7.57-.74,15.26-1.31,23.01-1.73C313.17,11.13,434.64-12.78,398.83,164.2c5.38,1.72,10.61,3.54,15.7,5.46,14.05-50.95,8.21-124.76-29.69-143.99Z"/><path class="cls-1" d="M196,451.8c3.28,4.9,4.8,10.83,4.52,16.38-73.69,27.32-118.62-14.54-106.37-114.09,5.2,1.87,10.54,3.65,16,5.31-8.79,82.55,23.38,118.4,85.84,92.4Z"/><path class="cls-1" d="M410.85,184.64c-23.2,84.42-69.93,165.36-131.42,227.67-20.35,21.71-43.03,38.81-65.38,49.88-.62-5.44-2.34-10.85-5.26-15.89l-.26-.46c28.8-15.14,58.2-40.4,79.62-67.01,49.2-57.5,87.42-126.56,107.08-199.71,5.36,1.74,10.58,3.57,15.62,5.52Z"/><path class="cls-1" d="M96.23,154.75c-188.22,76.18-66.17,187.34,75.51,204.64-4.42-6.2-8.75-12.56-12.99-19.07-134.76-23.48-215.66-116.58-44.51-174.06-1.2-5.52-2.25-10.97-3.12-16.34-5.41,1.69-9.74,2.93-14.88,4.83Z"/><path class="cls-1" d="M336.15,151.42c-68.63-10.03-140.7-7.68-207.73,10.34-1.18-5.51-2.2-10.94-3.03-16.29,27.82-7.62,58.54-12.52,87.92-14.76,74.76-5.17,152.97,1.55,222.08,31.32,6.08,2.56,11.76,5.24,17.08,8.04-4.36,4.1-7.7,9.02-9.91,14.38-31.34-17.3-71.43-29.42-106.41-33.04Z"/><path class="cls-1" d="M503.61,215.51c24.51,46.75-6.13,93.08-73.15,119.55-.99-5.44-2.13-10.96-3.42-16.52,88.17-39.62,86.06-89.05,27.51-126.92,1.84-5.62,5.49-10.66,10.7-14.18,15.61,9.9,29.64,22.4,38.36,38.07Z"/><ellipse class="cls-1" cx="257.56" cy="247.68" rx="55.07" ry="55.08"/><ellipse class="cls-1" cx="173.01" cy="466.96" rx="27.54" ry="27.54"/><ellipse class="cls-1" cx="104.35" cy="79.2" rx="27.54" ry="27.54"/><ellipse class="cls-1" cx="480.71" cy="200.23" rx="27.54" ry="27.54"/></svg>