<?xml version="1.0" encoding="UTF-8"?><svg id="Layer_1" xmlns="http://www.w3.org/2000/svg" viewBox="0 0 128 115.65"><defs><style>.cls-1{fill:#8178e6;stroke-width:0px;}</style></defs><path class="cls-1" d="M66.12,100.93c-2.71-.59-5.12-1.07-7.5-1.64-1.01-.24-1.73-.07-2.53.67-3.16,2.93-6.85,5-10.96,6.29-.83.26-1.24.68-1.49,1.47-.69,2.25-1.47,4.48-2.14,6.74-.26.86-.65,1.2-1.58,1.18-2.79-.06-5.57-.06-8.36,0-.87.02-1.26-.29-1.5-1.1-.7-2.3-1.41-4.6-2.24-6.86-.2-.56-.8-1.18-1.35-1.36-4.22-1.43-7.97-3.61-11.33-6.54-.46-.41-1.36-.58-1.99-.48-2.37.4-4.72.93-7.06,1.49-.73.17-1.11.02-1.47-.63-1.43-2.55-2.89-5.09-4.39-7.6-.4-.66-.26-1.08.22-1.6,1.64-1.77,3.21-3.59,4.86-5.35.57-.61.76-1.17.57-2.01-.96-4.3-.96-8.62-.01-12.92.18-.81.07-1.4-.52-2.03-1.63-1.71-3.15-3.52-4.77-5.24-.62-.65-.73-1.14-.24-1.95,1.45-2.38,2.84-4.79,4.17-7.23.45-.82.9-.97,1.8-.75,2.33.57,4.69,1.06,7.06,1.47.54.09,1.32-.1,1.73-.46,3.37-2.99,7.18-5.17,11.44-6.62.51-.17,1.07-.75,1.26-1.27.84-2.3,1.57-4.64,2.29-6.99.23-.75.59-1.04,1.4-1.03,2.83.05,5.67.05,8.5,0,.88-.02,1.24.31,1.49,1.12.69,2.3,1.41,4.6,2.24,6.85.2.55.81,1.15,1.36,1.34,4.17,1.42,7.94,3.51,11.16,6.51.67.63,1.3.77,2.15.57,2.34-.54,4.71-.98,7.05-1.54.74-.18,1.1-.02,1.47.63,1.43,2.55,2.89,5.09,4.39,7.6.39.66.27,1.08-.21,1.6-1.64,1.77-3.21,3.59-4.86,5.35-.56.6-.78,1.14-.58,2,.97,4.35.9,8.7.05,13.08-.11.57.14,1.38.52,1.83,1.51,1.82,3.1,3.56,4.72,5.28.6.64.76,1.13.26,1.94-1.48,2.41-2.84,4.9-4.28,7.33-.22.38-.62.65-.81.85ZM35.98,60.26c-9.13-.15-16.91,7.29-17.07,16.33-.17,9.58,7.21,17.26,16.72,17.4,9.08.14,16.83-7.35,17.01-16.42.18-9.47-7.21-17.15-16.66-17.31Z"/><path class="cls-1" d="M55.21,37.57c1.29-1.43,2.56-2.76,3.72-4.19.35-.44.59-1.19.49-1.73-.53-2.97-.52-5.91.01-8.88.09-.5-.13-1.21-.46-1.61-1.19-1.46-2.49-2.83-3.76-4.26,1.15-2,2.23-3.94,3.4-5.82.2-.31.85-.56,1.24-.5,1.77.29,3.6,1.21,5.24.92,1.55-.27,2.83-1.85,4.32-2.71,1.3-.76,2.66-1.44,4.08-1.93.95-.33,1.5-.77,1.76-1.75.36-1.37.87-2.69,1.27-4.05.21-.73.57-1.08,1.39-1.05,1.84.06,3.69.05,5.53,0,.75-.02,1.09.27,1.29.97.5,1.67.69,3.64,1.73,4.88.97,1.17,2.92,1.48,4.35,2.32,1.38.8,2.73,1.7,3.95,2.73.79.66,1.49.81,2.43.57,1.32-.34,2.68-.55,4.01-.89.74-.19,1.22-.1,1.62.64.9,1.66,1.92,3.26,2.78,4.93.19.36.08,1.09-.18,1.42-.97,1.22-2.11,2.3-3.07,3.52-.35.45-.61,1.2-.51,1.73.56,2.97.56,5.9-.02,8.87-.1.49.15,1.19.48,1.61.94,1.18,1.97,2.29,3.02,3.38.56.58.74,1.06.24,1.83-.97,1.51-1.85,3.07-2.69,4.66-.38.71-.83.91-1.59.73-1.51-.36-3.03-.73-4.57-.96-.51-.08-1.22.1-1.61.43-2.29,1.96-4.84,3.42-7.67,4.45-.51.19-1.03.77-1.24,1.29-.57,1.39-1.01,2.84-1.42,4.3-.21.76-.55,1.07-1.38,1.04-1.84-.06-3.69-.06-5.53,0-.75.02-1.1-.25-1.31-.94-.46-1.54-.93-3.07-1.5-4.57-.17-.44-.65-.93-1.09-1.09-2.88-1.03-5.47-2.52-7.8-4.51-.38-.33-1.11-.47-1.62-.39-1.49.23-2.96.59-4.43.94-.8.19-1.3,0-1.71-.77-.98-1.83-2.05-3.61-3.17-5.56ZM68.75,27.17c-.03,6.6,5.23,11.92,11.8,11.96,6.64.03,12.03-5.31,12.02-11.91,0-6.52-5.38-11.89-11.91-11.91-6.55-.02-11.88,5.29-11.91,11.87Z"/><path class="cls-1" d="M102.72,107.61c-3.7,0-3.81.03-4.8-3.49-.55-1.98-1.48-3.1-3.48-3.86-2.11-.8-4-2.27-5.86-3.61-.74-.53-1.32-.73-2.17-.52-1.42.35-2.87.57-4.28.94-.71.19-1.11.09-1.48-.59-.9-1.66-1.83-3.3-2.83-4.9-.41-.66-.3-1.08.19-1.6,1.22-1.31,2.9-2.49,3.45-4.05.52-1.48-.25-3.39-.26-5.11-.01-1.5.12-3.02.4-4.5.19-1.01-.03-1.68-.74-2.37-.97-.96-1.82-2.05-2.77-3.03-.53-.55-.7-.99-.25-1.71.98-1.56,1.9-3.15,2.76-4.78.39-.75.86-.84,1.6-.66,1.47.35,2.94.7,4.43.9.56.08,1.32-.06,1.73-.41,2.3-1.94,4.85-3.41,7.68-4.44.48-.17.98-.7,1.18-1.18.57-1.44,1.01-2.94,1.47-4.43.2-.66.48-1.02,1.27-1,1.89.06,3.78.05,5.67,0,.75-.02,1.07.27,1.28.98.49,1.67.69,3.64,1.74,4.88.98,1.16,2.94,1.46,4.38,2.29,1.38.8,2.71,1.73,3.94,2.74.73.6,1.34.82,2.28.56,1.45-.4,2.94-.69,4.43-.91.38-.06,1.01.22,1.21.53,1.03,1.63,2.01,3.31,2.89,5.03.19.36.08,1.09-.19,1.42-.97,1.22-2.11,2.3-3.06,3.52-.35.45-.6,1.19-.5,1.72.54,2.97.55,5.9-.02,8.87-.1.5.13,1.2.45,1.61.97,1.22,2.03,2.36,3.11,3.49.49.52.64.93.23,1.59-.99,1.61-1.92,3.25-2.83,4.9-.36.65-.75.85-1.48.6-3.34-1.13-6.41-1.3-9.22,1.57-1.14,1.17-3.1,1.51-4.63,2.32-.52.27-1.06.76-1.27,1.28-.55,1.35-.99,2.75-1.36,4.16-.25.95-.72,1.31-1.7,1.22-.84-.08-1.7-.02-2.55-.02ZM90.89,80.34c-.03,6.59,5.2,11.92,11.78,12.01,6.54.09,12.04-5.36,12.04-11.93,0-6.55-5.31-11.87-11.89-11.89-6.6-.03-11.9,5.23-11.93,11.82Z"/><path class="cls-1" d="M35.7,82.79c-3.11-.03-5.65-2.61-5.62-5.71.03-3.17,2.65-5.7,5.84-5.64,3.1.06,5.61,2.68,5.54,5.79-.07,3.14-2.62,5.6-5.76,5.56Z"/></svg>