<?xml version="1.0" encoding="UTF-8"?><svg id="Layer_1" xmlns="http://www.w3.org/2000/svg" viewBox="0 0 94 128"><defs><style>.cls-1{fill:#8178e6;stroke-width:0px;}</style></defs><path class="cls-1" d="M66.59,59.49c5.97.04,8.53,2.36,9.5,8.41,6.95.74,9.59,4.86,9.35,9.83,4.31.97,6.9,3.79,8.17,7.91.65,2.09.47,4.12-.57,6.09-3.29,6.21-6.48,12.47-9.81,18.65-6.51,12.08-20.49,19.25-34.05,17.28-14.25-2.07-24.59-10.06-32.11-21.99-3.52-5.58-5.26-11.94-7.32-18.14-2.53-7.59-4.92-15.22-7.39-22.83-.81-2.5-1.24-5.04-.74-7.64.97-5.04,4.1-8.28,8.89-9.74,4.51-1.37,8.38.25,11.58,3.47,1.15,1.16,2.14,2.56,2.89,4.01,2.3,4.47,4.44,9.01,6.64,13.53.09.18.14.38.27.52.49.51,1,1.01,1.5,1.51.49-.5,1.13-.91,1.44-1.5,6.87-13.03,13.7-26.09,20.57-39.12.77-1.46,1.64-2.91,2.7-4.16,4.65-5.5,13.16-5.26,17.43.55,3.17,4.32,4.12,8.86,1.26,13.92-3.34,5.9-6.35,11.98-9.5,17.99-.22.43-.42.86-.72,1.46Z"/><path class="cls-1" d="M54.68,7.04c0,1.12.11,2.25-.02,3.36-.25,2.15-1.87,3.56-3.94,3.57-2.12,0-3.86-1.47-4-3.68-.14-2.19-.14-4.39,0-6.58C46.84,1.5,48.56,0,50.68,0c2.12,0,3.77,1.45,4,3.68.11,1.11.02,2.24.02,3.36,0,0-.01,0-.02,0Z"/><path class="cls-1" d="M26.64,20.37c-1.5-.02-2.62-.74-3.37-1.99-1.03-1.71-2.05-3.43-2.99-5.2-1.09-2.06-.43-4.37,1.48-5.46,1.95-1.11,4.2-.55,5.46,1.48,1.11,1.78,2.2,3.58,3.11,5.46,1.34,2.76-.66,5.77-3.69,5.7Z"/><path class="cls-1" d="M8.83,37.92c-.24-.07-.89-.15-1.43-.44-1.84-1-3.68-2.02-5.45-3.14-1.99-1.26-2.5-3.57-1.34-5.49,1.11-1.83,3.37-2.47,5.38-1.4,1.85.98,3.67,2.04,5.44,3.16,1.55.98,2.15,2.81,1.64,4.48-.53,1.71-2.05,2.84-4.23,2.84Z"/></svg>