<?xml version="1.0" encoding="UTF-8"?><svg id="Layer_1" xmlns="http://www.w3.org/2000/svg" viewBox="0 0 128 110.45"><defs><style>.cls-1{fill:#8178e6;stroke-width:0px;}</style></defs><path class="cls-1" d="M0,67.72h23.36c.83,3.32,1.43,6.52,2.42,9.58,1.86,5.75,5.08,10.73,9.31,15.05,1.17,1.2,1.74,2.56,1.11,4.19-.23.6-.64,1.18-1.09,1.64-3.6,3.65-7.23,7.27-10.86,10.88-1.89,1.87-4.03,1.82-5.91-.09C8.6,99.03,2.7,87.15.56,73.4.35,72.01.19,70.61,0,69.22c0-.5,0-1,0-1.5Z"/><path class="cls-1" d="M0,58.72c.42-2.62.73-5.26,1.27-7.86,2.24-10.91,7.09-20.53,14.39-28.94.14-.16.24-.35.33-.49,5.62,5.65,11.14,11.18,16.75,16.81-5.15,6.29-8.21,13.58-9.07,21.98H0c0-.5,0-1,0-1.5Z"/><path class="cls-1" d="M128,60.22h-23.66c-.86-8.28-3.87-15.6-8.99-21.85,5.58-5.6,11.12-11.16,16.7-16.76,3.59,4,6.69,8.55,9.2,13.52,3.6,7.13,5.79,14.67,6.54,22.63.03.32.14.64.21.96v1.5Z"/><path class="cls-1" d="M128,69.22c-.42,2.66-.73,5.35-1.28,7.98-2.58,12.3-8.35,22.9-17.14,31.86-1.81,1.84-3.96,1.83-5.82.03-1.19-1.15-2.4-2.28-3.72-3.53.5-.31.77-.48,1.04-.64,5.31-3.28,7-10,3.81-15.38-1.34-2.25-2.83-4.41-4.2-6.65-.21-.35-.31-.97-.15-1.32,2.04-4.33,3.29-8.88,3.79-13.85h23.67v1.5Z"/><path class="cls-1" d="M52.24,64.93c0-5.74,2.95-10.07,7.48-11.86,4.48-1.77,9.79-.72,12.89,3.03,3.47,4.19,6.76,8.57,9.83,13.06,5.33,7.8,10.44,15.75,15.65,23.64.67,1.01,1.09,2.06.8,3.29-.63,2.67-3.47,3.75-5.92,2.19-3.72-2.37-7.46-4.72-11.1-7.2-7.43-5.07-14.81-10.2-22.18-15.35-1.33-.93-2.55-2.01-3.74-3.12-2.48-2.3-3.67-5.2-3.71-7.68Z"/><path class="cls-1" d="M89.63,32.64c-6.24-5.11-13.55-8.13-21.81-8.98V0c14.72.97,27.57,6.31,38.56,15.9-5.59,5.59-11.13,11.14-16.74,16.75Z"/><path class="cls-1" d="M60.14,23.67c-8.23.85-15.5,3.87-21.75,8.95-5.59-5.59-11.13-11.15-16.73-16.75C32.54,6.35,45.39,1.03,60.14,0v23.67Z"/></svg>