<?xml version="1.0" encoding="UTF-8"?><svg id="Layer_1" xmlns="http://www.w3.org/2000/svg" viewBox="0 0 128 128"><defs><style>.cls-1{fill:#8178e6;stroke-width:0px;}</style></defs><path class="cls-1" d="M55.23,27.76c0,5.54.01,11.08,0,16.63-.02,6.64-4.18,10.83-10.78,10.84-11.22.02-22.44.02-33.66,0C4.24,55.21.03,51.02.01,44.51c-.02-11.27-.02-22.53,0-33.8C.03,4.25,4.22.03,10.66.02c11.31-.02,22.62-.02,33.93,0,6.43.01,10.61,4.23,10.63,10.71.02,5.68,0,11.36,0,17.03Z"/><path class="cls-1" d="M97.29,55.23c-5.54,0-11.08,0-16.63,0-6.63-.01-10.83-4.18-10.84-10.78-.02-11.22-.02-22.44,0-33.66,0-6.6,4.21-10.77,10.84-10.77,11.17-.01,22.35-.01,33.52,0,6.64,0,10.83,4.17,10.84,10.77.02,11.22.02,22.44,0,33.66-.01,6.61-4.2,10.76-10.84,10.78-5.63.01-11.27,0-16.9,0Z"/><path class="cls-1" d="M55.23,97.51c0,5.54,0,11.08,0,16.63-.01,6.71-4.17,10.88-10.87,10.89-11.17.01-22.35.01-33.52,0-6.62,0-10.81-4.19-10.82-10.8-.01-11.22-.02-22.44,0-33.66,0-6.54,4.2-10.74,10.73-10.75,11.27-.02,22.53-.02,33.8,0,6.45.01,10.65,4.21,10.68,10.66.03,5.68,0,11.36,0,17.03Z"/><path class="cls-1" d="M97.42,66.9c2.76.08,5.19.99,7.14,2.94,6.83,6.8,13.67,13.58,20.43,20.45,4,4.07,4.03,10.17.04,14.23-6.78,6.91-13.62,13.76-20.54,20.53-4.02,3.94-10.12,3.93-14.13,0-6.91-6.78-13.76-13.62-20.53-20.53-3.99-4.07-3.95-10.17.05-14.23,6.76-6.86,13.6-13.65,20.43-20.44,1.96-1.95,4.38-2.86,7.11-2.94Z"/></svg>