<?xml version="1.0" encoding="UTF-8"?><svg id="Layer_1" xmlns="http://www.w3.org/2000/svg" viewBox="0 0 128 128"><defs><style>.cls-1{fill:#8178e6;stroke-width:0px;}</style></defs><path class="cls-1" d="M93,128h-24.75c0-3.24.06-6.49-.02-9.73-.3-11.62-12.75-19.33-23.24-14.34-6.45,3.07-9.54,8.38-9.65,15.47-.05,2.87-.06,5.73-.09,8.6H10.5c-.23-.08-.45-.19-.68-.24-2.88-.68-5.29-2.09-7.18-4.42C1.24,121.6.66,119.54,0,117.5,0,109.25,0,101,0,92.75c.54-.03,1.08-.07,1.61-.08,3.08-.05,6.16.06,9.23-.16,8.04-.57,14.44-7.54,14.72-15.88.27-8.15-5.77-15.66-13.73-16.58-3.9-.45-7.88-.22-11.83-.3,0-8.17,0-16.33,0-24.5.42-1.29.68-2.66,1.28-3.86,2.33-4.7,6.21-6.99,11.44-7,7.41-.01,14.82,0,22.23,0,.49,0,.98,0,1.61,0,0-.54,0-.95,0-1.36,0-2.5-.03-4.99,0-7.49.07-5.35,2.21-9.64,6.56-12.81,2.06-1.5,4.45-2.16,6.88-2.73,1.25,0,2.5,0,3.75,0,.18.08.36.19.55.23,5.34.99,9.14,3.98,11.44,8.88,1.28,2.72,1.34,5.63,1.29,8.56-.04,2.19,0,4.39,0,6.73.63,0,1.12,0,1.61,0,7.33,0,14.66.01,21.99,0,2.11,0,4.16.26,6.05,1.24,4.66,2.41,6.93,6.29,6.93,11.51.01,7.45,0,14.91,0,22.36,0,.48.05.95.08,1.5,3.27,0,6.4-.09,9.51.02,5.48.2,9.77,2.65,12.54,7.37,1.04,1.78,1.52,3.9,2.25,5.87v3.75c-.08.23-.18.46-.23.7-1.27,6.36-5.03,10.52-11.25,12.19-2.13.57-4.45.46-6.69.55-2.02.08-4.06.02-6.22.02,0,.68,0,1.21,0,1.74-.02,7.87.04,15.73-.1,23.6-.06,3.26-1.65,5.94-4.06,8.15-1.85,1.69-4.12,2.42-6.45,3.06Z"/></svg>