<?xml version="1.0" encoding="UTF-8"?><svg id="Layer_1" xmlns="http://www.w3.org/2000/svg" viewBox="0 0 128 128"><defs><style>.cls-1{fill:#8178e6;stroke-width:0px;}</style></defs><path class="cls-1" d="M0,94.25h19.65c0,1.2-.01,2.27,0,3.34.04,2.44,1.59,4.13,3.75,4.12,2.16-.01,3.69-1.71,3.74-4.15.02-1.04,0-2.07,0-3.19,5.59,0,35.29,0,40.95,0,0,1.27-.07,2.51.02,3.74.13,1.96,1.51,3.37,3.38,3.59,1.63.19,3.36-.91,3.87-2.54.17-.54.19-1.15.21-1.72.03-.99,0-1.98,0-3.06h19.6v1.35c0,9.16,0,18.33,0,27.49,0,3.27-1.36,4.65-4.62,4.65-28.62,0-57.24-.01-85.85.03-2.27,0-3.85-.76-4.71-2.88v-30.75Z"/><path class="cls-1" d="M102.4,122.58c.05-18.61.04-37.23.03-55.84,0-5.36-2.8-9.52-7.53-11.03-1.36-.43-2.85-.59-4.29-.62-4-.08-7.99-.03-11.99-.03-.45,0-.91,0-1.5,0v-15.48c-1.66,0-3.18,0-4.71,0-.96,0-1.92,0-2.87-.02-1.56-.05-2.7-.79-3.33-2.22-.63-1.43-.4-2.78.59-3.97,1.87-2.23,3.77-4.44,5.66-6.66,7.07-8.3,14.13-16.62,21.24-24.89.62-.73,1.53-1.22,2.3-1.82.58,0,1.17,0,1.75,0,.98.8,2.12,1.47,2.93,2.42,8.56,9.98,17.08,20,25.59,30.02.66.78,1.16,1.7,1.73,2.56v1.75c-.72,1.55-1.71,2.75-3.6,2.81-.71.02-1.41.03-2.12.03-2.15,0-4.3,0-6.55,0,0,.7,0,1.24,0,1.77,0,27.26-.02,54.52.03,81.78,0,2.36-.76,4.87-6.76,4.87-7,0-6.6-3.61-6.6-5.42Z"/><path class="cls-1" d="M0,65.25c.84-2.22,2.5-2.96,4.8-2.96,28.54.03,57.08.02,85.62.02,3.41,0,4.76,1.36,4.76,4.78,0,6.04,0,12.08,0,18.12v1.46h-19.61c0-1.74.05-3.51-.01-5.28-.08-2.37-1.95-3.96-4.24-3.67-1.85.23-3.17,1.77-3.22,3.85-.04,1.66,0,3.33,0,5.1H27.15c0-1.67.03-3.36,0-5.05-.05-2.11-1.33-3.64-3.17-3.9-2.28-.32-4.2,1.26-4.29,3.61-.07,1.74-.01,3.49-.01,5.4H0v-21.5Z"/><path class="cls-1" d="M55.9,54.99v-5.55h-16.01v5.51h-7.43c0-3.38-.09-6.75.04-10.1.06-1.5,1.39-2.61,2.89-2.88.57-.1,1.16-.11,1.74-.11,7.16,0,14.33,0,21.49,0,3.5,0,4.8,1.32,4.8,4.86,0,2.33,0,4.66,0,7,0,.41-.03.81-.05,1.28h-7.48Z"/></svg>